<?xml version="1.0" encoding="utf-8" standalone="no"?>
<!DOCTYPE svg PUBLIC "-//W3C//DTD SVG 1.1//EN"
  "http://www.w3.org/Graphics/SVG/1.1/DTD/svg11.dtd">
<svg height="516.011563pt" version="1.1" viewBox="0 0 628.356125 516.011563" width="628.356125pt" xmlns="http://www.w3.org/2000/svg" xmlns:xlink="http://www.w3.org/1999/xlink">
 <metadata>
  <rdf:RDF xmlns:cc="http://creativecommons.org/ns#" xmlns:dc="http://purl.org/dc/elements/1.1/" xmlns:rdf="http://www.w3.org/1999/02/22-rdf-syntax-ns#">
   <cc:Work>
    <dc:type rdf:resource="http://purl.org/dc/dcmitype/StillImage"/>
    <dc:date>2022-01-26T15:04:47.758481</dc:date>
    <dc:format>image/svg+xml</dc:format>
    <dc:creator>
     <cc:Agent>
      <dc:title>Matplotlib v3.4.3, https://matplotlib.org/</dc:title>
     </cc:Agent>
    </dc:creator>
   </cc:Work>
  </rdf:RDF>
 </metadata>
 <defs>
  <style type="text/css">*{stroke-linecap:butt;stroke-linejoin:round;}</style>
 </defs>
 <g id="figure_1">
  <g id="patch_1">
   <path d="M 0 516.011563 
L 628.356125 516.011563 
L 628.356125 0 
L 0 0 
z
" style="fill:none;"/>
  </g>
  <g id="axes_1">
   <g id="patch_2">
    <path d="M 72.58125 362.16 
L 518.98125 362.16 
L 518.98125 36 
L 72.58125 36 
z
" style="fill:#ffffff;"/>
   </g>
   <g id="patch_3">
    <path clip-path="url(#p8300224a37)" d="M 84.711685 362.16 
L 118.676902 362.16 
L 118.676902 341.196375 
L 84.711685 341.196375 
z
" style="fill:#ff64b0;stroke:#808080;stroke-linejoin:miter;"/>
   </g>
   <g id="patch_4">
    <path clip-path="url(#p8300224a37)" d="M 133.233424 362.16 
L 167.198641 362.16 
L 167.198641 343.879699 
L 133.233424 343.879699 
z
" style="fill:#ff64b0;stroke:#808080;stroke-linejoin:miter;"/>
   </g>
   <g id="patch_5">
    <path clip-path="url(#p8300224a37)" d="M 181.755163 362.16 
L 215.72038 362.16 
L 215.72038 348.346397 
L 181.755163 348.346397 
z
" style="fill:#ff64b0;stroke:#808080;stroke-linejoin:miter;"/>
   </g>
   <g id="patch_6">
    <path clip-path="url(#p8300224a37)" d="M 230.276902 362.16 
L 264.24212 362.16 
L 264.24212 350.506614 
L 230.276902 350.506614 
z
" style="fill:#ff64b0;stroke:#808080;stroke-linejoin:miter;"/>
   </g>
   <g id="patch_7">
    <path clip-path="url(#p8300224a37)" d="M 278.798641 362.16 
L 312.763859 362.16 
L 312.763859 350.384692 
L 278.798641 350.384692 
z
" style="fill:#ff64b0;stroke:#808080;stroke-linejoin:miter;"/>
   </g>
   <g id="patch_8">
    <path clip-path="url(#p8300224a37)" d="M 327.32038 362.16 
L 361.285598 362.16 
L 361.285598 351.436906 
L 327.32038 351.436906 
z
" style="fill:#ff64b0;stroke:#808080;stroke-linejoin:miter;"/>
   </g>
   <g id="patch_9">
    <path clip-path="url(#p8300224a37)" d="M 375.84212 362.16 
L 409.807337 362.16 
L 409.807337 350.953677 
L 375.84212 350.953677 
z
" style="fill:#ff64b0;stroke:#808080;stroke-linejoin:miter;"/>
   </g>
   <g id="patch_10">
    <path clip-path="url(#p8300224a37)" d="M 424.363859 362.16 
L 458.329076 362.16 
L 458.329076 348.980497 
L 424.363859 348.980497 
z
" style="fill:#ff64b0;stroke:#808080;stroke-linejoin:miter;"/>
   </g>
   <g id="patch_11">
    <path clip-path="url(#p8300224a37)" d="M 472.885598 362.16 
L 506.850815 362.16 
L 506.850815 351.198346 
L 472.885598 351.198346 
z
" style="fill:#ff64b0;stroke:#808080;stroke-linejoin:miter;"/>
   </g>
   <g id="patch_12">
    <path clip-path="url(#p8300224a37)" d="M 84.711685 341.196375 
L 118.676902 341.196375 
L 118.676902 300.695124 
L 84.711685 300.695124 
z
" style="fill:#f564e3;stroke:#808080;stroke-linejoin:miter;"/>
   </g>
   <g id="patch_13">
    <path clip-path="url(#p8300224a37)" d="M 133.233424 343.879699 
L 167.198641 343.879699 
L 167.198641 312.011666 
L 133.233424 312.011666 
z
" style="fill:#f564e3;stroke:#808080;stroke-linejoin:miter;"/>
   </g>
   <g id="patch_14">
    <path clip-path="url(#p8300224a37)" d="M 181.755163 348.346397 
L 215.72038 348.346397 
L 215.72038 320.775434 
L 181.755163 320.775434 
z
" style="fill:#f564e3;stroke:#808080;stroke-linejoin:miter;"/>
   </g>
   <g id="patch_15">
    <path clip-path="url(#p8300224a37)" d="M 230.276902 350.506614 
L 264.24212 350.506614 
L 264.24212 324.234294 
L 230.276902 324.234294 
z
" style="fill:#f564e3;stroke:#808080;stroke-linejoin:miter;"/>
   </g>
   <g id="patch_16">
    <path clip-path="url(#p8300224a37)" d="M 278.798641 350.384692 
L 312.763859 350.384692 
L 312.763859 321.643532 
L 278.798641 321.643532 
z
" style="fill:#f564e3;stroke:#808080;stroke-linejoin:miter;"/>
   </g>
   <g id="patch_17">
    <path clip-path="url(#p8300224a37)" d="M 327.32038 351.436906 
L 361.285598 351.436906 
L 361.285598 321.611879 
L 327.32038 321.611879 
z
" style="fill:#f564e3;stroke:#808080;stroke-linejoin:miter;"/>
   </g>
   <g id="patch_18">
    <path clip-path="url(#p8300224a37)" d="M 375.84212 350.953677 
L 409.807337 350.953677 
L 409.807337 323.591258 
L 375.84212 323.591258 
z
" style="fill:#f564e3;stroke:#808080;stroke-linejoin:miter;"/>
   </g>
   <g id="patch_19">
    <path clip-path="url(#p8300224a37)" d="M 424.363859 348.980497 
L 458.329076 348.980497 
L 458.329076 325.090503 
L 424.363859 325.090503 
z
" style="fill:#f564e3;stroke:#808080;stroke-linejoin:miter;"/>
   </g>
   <g id="patch_20">
    <path clip-path="url(#p8300224a37)" d="M 472.885598 351.198346 
L 506.850815 351.198346 
L 506.850815 329.724209 
L 472.885598 329.724209 
z
" style="fill:#f564e3;stroke:#808080;stroke-linejoin:miter;"/>
   </g>
   <g id="patch_21">
    <path clip-path="url(#p8300224a37)" d="M 84.711685 300.695124 
L 118.676902 300.695124 
L 118.676902 297.128222 
L 84.711685 297.128222 
z
" style="fill:#c77cff;stroke:#808080;stroke-linejoin:miter;"/>
   </g>
   <g id="patch_22">
    <path clip-path="url(#p8300224a37)" d="M 133.233424 312.011666 
L 167.198641 312.011666 
L 167.198641 309.148498 
L 133.233424 309.148498 
z
" style="fill:#c77cff;stroke:#808080;stroke-linejoin:miter;"/>
   </g>
   <g id="patch_23">
    <path clip-path="url(#p8300224a37)" d="M 181.755163 320.775434 
L 215.72038 320.775434 
L 215.72038 318.40981 
L 181.755163 318.40981 
z
" style="fill:#c77cff;stroke:#808080;stroke-linejoin:miter;"/>
   </g>
   <g id="patch_24">
    <path clip-path="url(#p8300224a37)" d="M 230.276902 324.234294 
L 264.24212 324.234294 
L 264.24212 322.157113 
L 230.276902 322.157113 
z
" style="fill:#c77cff;stroke:#808080;stroke-linejoin:miter;"/>
   </g>
   <g id="patch_25">
    <path clip-path="url(#p8300224a37)" d="M 278.798641 321.643532 
L 312.763859 321.643532 
L 312.763859 319.314886 
L 278.798641 319.314886 
z
" style="fill:#c77cff;stroke:#808080;stroke-linejoin:miter;"/>
   </g>
   <g id="patch_26">
    <path clip-path="url(#p8300224a37)" d="M 327.32038 321.611879 
L 361.285598 321.611879 
L 361.285598 319.41143 
L 327.32038 319.41143 
z
" style="fill:#c77cff;stroke:#808080;stroke-linejoin:miter;"/>
   </g>
   <g id="patch_27">
    <path clip-path="url(#p8300224a37)" d="M 375.84212 323.591258 
L 409.807337 323.591258 
L 409.807337 321.546779 
L 375.84212 321.546779 
z
" style="fill:#c77cff;stroke:#808080;stroke-linejoin:miter;"/>
   </g>
   <g id="patch_28">
    <path clip-path="url(#p8300224a37)" d="M 424.363859 325.090503 
L 458.329076 325.090503 
L 458.329076 323.046765 
L 424.363859 323.046765 
z
" style="fill:#c77cff;stroke:#808080;stroke-linejoin:miter;"/>
   </g>
   <g id="patch_29">
    <path clip-path="url(#p8300224a37)" d="M 472.885598 329.724209 
L 506.850815 329.724209 
L 506.850815 327.993952 
L 472.885598 327.993952 
z
" style="fill:#c77cff;stroke:#808080;stroke-linejoin:miter;"/>
   </g>
   <g id="patch_30">
    <path clip-path="url(#p8300224a37)" d="M 84.711685 297.128222 
L 118.676902 297.128222 
L 118.676902 206.926483 
L 84.711685 206.926483 
z
" style="fill:#619cff;stroke:#808080;stroke-linejoin:miter;"/>
   </g>
   <g id="patch_31">
    <path clip-path="url(#p8300224a37)" d="M 133.233424 309.148498 
L 167.198641 309.148498 
L 167.198641 193.06723 
L 133.233424 193.06723 
z
" style="fill:#619cff;stroke:#808080;stroke-linejoin:miter;"/>
   </g>
   <g id="patch_32">
    <path clip-path="url(#p8300224a37)" d="M 181.755163 318.40981 
L 215.72038 318.40981 
L 215.72038 189.801022 
L 181.755163 189.801022 
z
" style="fill:#619cff;stroke:#808080;stroke-linejoin:miter;"/>
   </g>
   <g id="patch_33">
    <path clip-path="url(#p8300224a37)" d="M 230.276902 322.157113 
L 264.24212 322.157113 
L 264.24212 199.954419 
L 230.276902 199.954419 
z
" style="fill:#619cff;stroke:#808080;stroke-linejoin:miter;"/>
   </g>
   <g id="patch_34">
    <path clip-path="url(#p8300224a37)" d="M 278.798641 319.314886 
L 312.763859 319.314886 
L 312.763859 209.346764 
L 278.798641 209.346764 
z
" style="fill:#619cff;stroke:#808080;stroke-linejoin:miter;"/>
   </g>
   <g id="patch_35">
    <path clip-path="url(#p8300224a37)" d="M 327.32038 319.41143 
L 361.285598 319.41143 
L 361.285598 213.985538 
L 327.32038 213.985538 
z
" style="fill:#619cff;stroke:#808080;stroke-linejoin:miter;"/>
   </g>
   <g id="patch_36">
    <path clip-path="url(#p8300224a37)" d="M 375.84212 321.546779 
L 409.807337 321.546779 
L 409.807337 207.168297 
L 375.84212 207.168297 
z
" style="fill:#619cff;stroke:#808080;stroke-linejoin:miter;"/>
   </g>
   <g id="patch_37">
    <path clip-path="url(#p8300224a37)" d="M 424.363859 323.046765 
L 458.329076 323.046765 
L 458.329076 201.550987 
L 424.363859 201.550987 
z
" style="fill:#619cff;stroke:#808080;stroke-linejoin:miter;"/>
   </g>
   <g id="patch_38">
    <path clip-path="url(#p8300224a37)" d="M 472.885598 327.993952 
L 506.850815 327.993952 
L 506.850815 201.918199 
L 472.885598 201.918199 
z
" style="fill:#619cff;stroke:#808080;stroke-linejoin:miter;"/>
   </g>
   <g id="patch_39">
    <path clip-path="url(#p8300224a37)" d="M 84.711685 206.926483 
L 118.676902 206.926483 
L 118.676902 197.115066 
L 84.711685 197.115066 
z
" style="fill:#00b4f0;stroke:#808080;stroke-linejoin:miter;"/>
   </g>
   <g id="patch_40">
    <path clip-path="url(#p8300224a37)" d="M 133.233424 193.06723 
L 167.198641 193.06723 
L 167.198641 186.385352 
L 133.233424 186.385352 
z
" style="fill:#00b4f0;stroke:#808080;stroke-linejoin:miter;"/>
   </g>
   <g id="patch_41">
    <path clip-path="url(#p8300224a37)" d="M 181.755163 189.801022 
L 215.72038 189.801022 
L 215.72038 179.029403 
L 181.755163 179.029403 
z
" style="fill:#00b4f0;stroke:#808080;stroke-linejoin:miter;"/>
   </g>
   <g id="patch_42">
    <path clip-path="url(#p8300224a37)" d="M 230.276902 199.954419 
L 264.24212 199.954419 
L 264.24212 189.315366 
L 230.276902 189.315366 
z
" style="fill:#00b4f0;stroke:#808080;stroke-linejoin:miter;"/>
   </g>
   <g id="patch_43">
    <path clip-path="url(#p8300224a37)" d="M 278.798641 209.346764 
L 312.763859 209.346764 
L 312.763859 200.248861 
L 278.798641 200.248861 
z
" style="fill:#00b4f0;stroke:#808080;stroke-linejoin:miter;"/>
   </g>
   <g id="patch_44">
    <path clip-path="url(#p8300224a37)" d="M 327.32038 213.985538 
L 361.285598 213.985538 
L 361.285598 205.534793 
L 327.32038 205.534793 
z
" style="fill:#00b4f0;stroke:#808080;stroke-linejoin:miter;"/>
   </g>
   <g id="patch_45">
    <path clip-path="url(#p8300224a37)" d="M 375.84212 207.168297 
L 409.807337 207.168297 
L 409.807337 198.979605 
L 375.84212 198.979605 
z
" style="fill:#00b4f0;stroke:#808080;stroke-linejoin:miter;"/>
   </g>
   <g id="patch_46">
    <path clip-path="url(#p8300224a37)" d="M 424.363859 201.550987 
L 458.329076 201.550987 
L 458.329076 193.356212 
L 424.363859 193.356212 
z
" style="fill:#00b4f0;stroke:#808080;stroke-linejoin:miter;"/>
   </g>
   <g id="patch_47">
    <path clip-path="url(#p8300224a37)" d="M 472.885598 201.918199 
L 506.850815 201.918199 
L 506.850815 193.72511 
L 472.885598 193.72511 
z
" style="fill:#00b4f0;stroke:#808080;stroke-linejoin:miter;"/>
   </g>
   <g id="patch_48">
    <path clip-path="url(#p8300224a37)" d="M 84.711685 197.115066 
L 118.676902 197.115066 
L 118.676902 152.803202 
L 84.711685 152.803202 
z
" style="fill:#00bfc4;stroke:#808080;stroke-linejoin:miter;"/>
   </g>
   <g id="patch_49">
    <path clip-path="url(#p8300224a37)" d="M 133.233424 186.385352 
L 167.198641 186.385352 
L 167.198641 150.646445 
L 133.233424 150.646445 
z
" style="fill:#00bfc4;stroke:#808080;stroke-linejoin:miter;"/>
   </g>
   <g id="patch_50">
    <path clip-path="url(#p8300224a37)" d="M 181.755163 179.029403 
L 215.72038 179.029403 
L 215.72038 150.375439 
L 181.755163 150.375439 
z
" style="fill:#00bfc4;stroke:#808080;stroke-linejoin:miter;"/>
   </g>
   <g id="patch_51">
    <path clip-path="url(#p8300224a37)" d="M 230.276902 189.315366 
L 264.24212 189.315366 
L 264.24212 159.174712 
L 230.276902 159.174712 
z
" style="fill:#00bfc4;stroke:#808080;stroke-linejoin:miter;"/>
   </g>
   <g id="patch_52">
    <path clip-path="url(#p8300224a37)" d="M 278.798641 200.248861 
L 312.763859 200.248861 
L 312.763859 168.17884 
L 278.798641 168.17884 
z
" style="fill:#00bfc4;stroke:#808080;stroke-linejoin:miter;"/>
   </g>
   <g id="patch_53">
    <path clip-path="url(#p8300224a37)" d="M 327.32038 205.534793 
L 361.285598 205.534793 
L 361.285598 172.861239 
L 327.32038 172.861239 
z
" style="fill:#00bfc4;stroke:#808080;stroke-linejoin:miter;"/>
   </g>
   <g id="patch_54">
    <path clip-path="url(#p8300224a37)" d="M 375.84212 198.979605 
L 409.807337 198.979605 
L 409.807337 165.227091 
L 375.84212 165.227091 
z
" style="fill:#00bfc4;stroke:#808080;stroke-linejoin:miter;"/>
   </g>
   <g id="patch_55">
    <path clip-path="url(#p8300224a37)" d="M 424.363859 193.356212 
L 458.329076 193.356212 
L 458.329076 152.064762 
L 424.363859 152.064762 
z
" style="fill:#00bfc4;stroke:#808080;stroke-linejoin:miter;"/>
   </g>
   <g id="patch_56">
    <path clip-path="url(#p8300224a37)" d="M 472.885598 193.72511 
L 506.850815 193.72511 
L 506.850815 156.633215 
L 472.885598 156.633215 
z
" style="fill:#00bfc4;stroke:#808080;stroke-linejoin:miter;"/>
   </g>
   <g id="patch_57">
    <path clip-path="url(#p8300224a37)" d="M 84.711685 152.803202 
L 118.676902 152.803202 
L 118.676902 91.513115 
L 84.711685 91.513115 
z
" style="fill:#00c08b;stroke:#808080;stroke-linejoin:miter;"/>
   </g>
   <g id="patch_58">
    <path clip-path="url(#p8300224a37)" d="M 133.233424 150.646445 
L 167.198641 150.646445 
L 167.198641 85.125669 
L 133.233424 85.125669 
z
" style="fill:#00c08b;stroke:#808080;stroke-linejoin:miter;"/>
   </g>
   <g id="patch_59">
    <path clip-path="url(#p8300224a37)" d="M 181.755163 150.375439 
L 215.72038 150.375439 
L 215.72038 81.127001 
L 181.755163 81.127001 
z
" style="fill:#00c08b;stroke:#808080;stroke-linejoin:miter;"/>
   </g>
   <g id="patch_60">
    <path clip-path="url(#p8300224a37)" d="M 230.276902 159.174712 
L 264.24212 159.174712 
L 264.24212 83.188189 
L 230.276902 83.188189 
z
" style="fill:#00c08b;stroke:#808080;stroke-linejoin:miter;"/>
   </g>
   <g id="patch_61">
    <path clip-path="url(#p8300224a37)" d="M 278.798641 168.17884 
L 312.763859 168.17884 
L 312.763859 86.011494 
L 278.798641 86.011494 
z
" style="fill:#00c08b;stroke:#808080;stroke-linejoin:miter;"/>
   </g>
   <g id="patch_62">
    <path clip-path="url(#p8300224a37)" d="M 327.32038 172.861239 
L 361.285598 172.861239 
L 361.285598 86.910615 
L 327.32038 86.910615 
z
" style="fill:#00c08b;stroke:#808080;stroke-linejoin:miter;"/>
   </g>
   <g id="patch_63">
    <path clip-path="url(#p8300224a37)" d="M 375.84212 165.227091 
L 409.807337 165.227091 
L 409.807337 84.445521 
L 375.84212 84.445521 
z
" style="fill:#00c08b;stroke:#808080;stroke-linejoin:miter;"/>
   </g>
   <g id="patch_64">
    <path clip-path="url(#p8300224a37)" d="M 424.363859 152.064762 
L 458.329076 152.064762 
L 458.329076 86.370988 
L 424.363859 86.370988 
z
" style="fill:#00c08b;stroke:#808080;stroke-linejoin:miter;"/>
   </g>
   <g id="patch_65">
    <path clip-path="url(#p8300224a37)" d="M 472.885598 156.633215 
L 506.850815 156.633215 
L 506.850815 85.405422 
L 472.885598 85.405422 
z
" style="fill:#00c08b;stroke:#808080;stroke-linejoin:miter;"/>
   </g>
   <g id="patch_66">
    <path clip-path="url(#p8300224a37)" d="M 84.711685 91.513115 
L 118.676902 91.513115 
L 118.676902 85.788973 
L 84.711685 85.788973 
z
" style="fill:#00ba38;stroke:#808080;stroke-linejoin:miter;"/>
   </g>
   <g id="patch_67">
    <path clip-path="url(#p8300224a37)" d="M 133.233424 85.125669 
L 167.198641 85.125669 
L 167.198641 80.823036 
L 133.233424 80.823036 
z
" style="fill:#00ba38;stroke:#808080;stroke-linejoin:miter;"/>
   </g>
   <g id="patch_68">
    <path clip-path="url(#p8300224a37)" d="M 181.755163 81.127001 
L 215.72038 81.127001 
L 215.72038 76.654042 
L 181.755163 76.654042 
z
" style="fill:#00ba38;stroke:#808080;stroke-linejoin:miter;"/>
   </g>
   <g id="patch_69">
    <path clip-path="url(#p8300224a37)" d="M 230.276902 83.188189 
L 264.24212 83.188189 
L 264.24212 78.565909 
L 230.276902 78.565909 
z
" style="fill:#00ba38;stroke:#808080;stroke-linejoin:miter;"/>
   </g>
   <g id="patch_70">
    <path clip-path="url(#p8300224a37)" d="M 278.798641 86.011494 
L 312.763859 86.011494 
L 312.763859 81.645996 
L 278.798641 81.645996 
z
" style="fill:#00ba38;stroke:#808080;stroke-linejoin:miter;"/>
   </g>
   <g id="patch_71">
    <path clip-path="url(#p8300224a37)" d="M 327.32038 86.910615 
L 361.285598 86.910615 
L 361.285598 82.762271 
L 327.32038 82.762271 
z
" style="fill:#00ba38;stroke:#808080;stroke-linejoin:miter;"/>
   </g>
   <g id="patch_72">
    <path clip-path="url(#p8300224a37)" d="M 375.84212 84.445521 
L 409.807337 84.445521 
L 409.807337 80.019225 
L 375.84212 80.019225 
z
" style="fill:#00ba38;stroke:#808080;stroke-linejoin:miter;"/>
   </g>
   <g id="patch_73">
    <path clip-path="url(#p8300224a37)" d="M 424.363859 86.370988 
L 458.329076 86.370988 
L 458.329076 81.971074 
L 424.363859 81.971074 
z
" style="fill:#00ba38;stroke:#808080;stroke-linejoin:miter;"/>
   </g>
   <g id="patch_74">
    <path clip-path="url(#p8300224a37)" d="M 472.885598 85.405422 
L 506.850815 85.405422 
L 506.850815 82.165572 
L 472.885598 82.165572 
z
" style="fill:#00ba38;stroke:#808080;stroke-linejoin:miter;"/>
   </g>
   <g id="patch_75">
    <path clip-path="url(#p8300224a37)" d="M 84.711685 85.788973 
L 118.676902 85.788973 
L 118.676902 73.77174 
L 84.711685 73.77174 
z
" style="fill:#7cae00;stroke:#808080;stroke-linejoin:miter;"/>
   </g>
   <g id="patch_76">
    <path clip-path="url(#p8300224a37)" d="M 133.233424 80.823036 
L 167.198641 80.823036 
L 167.198641 70.97683 
L 133.233424 70.97683 
z
" style="fill:#7cae00;stroke:#808080;stroke-linejoin:miter;"/>
   </g>
   <g id="patch_77">
    <path clip-path="url(#p8300224a37)" d="M 181.755163 76.654042 
L 215.72038 76.654042 
L 215.72038 69.571305 
L 181.755163 69.571305 
z
" style="fill:#7cae00;stroke:#808080;stroke-linejoin:miter;"/>
   </g>
   <g id="patch_78">
    <path clip-path="url(#p8300224a37)" d="M 230.276902 78.565909 
L 264.24212 78.565909 
L 264.24212 69.86726 
L 230.276902 69.86726 
z
" style="fill:#7cae00;stroke:#808080;stroke-linejoin:miter;"/>
   </g>
   <g id="patch_79">
    <path clip-path="url(#p8300224a37)" d="M 278.798641 81.645996 
L 312.763859 81.645996 
L 312.763859 71.677417 
L 278.798641 71.677417 
z
" style="fill:#7cae00;stroke:#808080;stroke-linejoin:miter;"/>
   </g>
   <g id="patch_80">
    <path clip-path="url(#p8300224a37)" d="M 327.32038 82.762271 
L 361.285598 82.762271 
L 361.285598 72.354621 
L 327.32038 72.354621 
z
" style="fill:#7cae00;stroke:#808080;stroke-linejoin:miter;"/>
   </g>
   <g id="patch_81">
    <path clip-path="url(#p8300224a37)" d="M 375.84212 80.019225 
L 409.807337 80.019225 
L 409.807337 71.02072 
L 375.84212 71.02072 
z
" style="fill:#7cae00;stroke:#808080;stroke-linejoin:miter;"/>
   </g>
   <g id="patch_82">
    <path clip-path="url(#p8300224a37)" d="M 424.363859 81.971074 
L 458.329076 81.971074 
L 458.329076 72.920657 
L 424.363859 72.920657 
z
" style="fill:#7cae00;stroke:#808080;stroke-linejoin:miter;"/>
   </g>
   <g id="patch_83">
    <path clip-path="url(#p8300224a37)" d="M 472.885598 82.165572 
L 506.850815 82.165572 
L 506.850815 73.569034 
L 472.885598 73.569034 
z
" style="fill:#7cae00;stroke:#808080;stroke-linejoin:miter;"/>
   </g>
   <g id="patch_84">
    <path clip-path="url(#p8300224a37)" d="M 84.711685 73.77174 
L 118.676902 73.77174 
L 118.676902 68.114607 
L 84.711685 68.114607 
z
" style="fill:#b79f00;stroke:#808080;stroke-linejoin:miter;"/>
   </g>
   <g id="patch_85">
    <path clip-path="url(#p8300224a37)" d="M 133.233424 70.97683 
L 167.198641 70.97683 
L 167.198641 66.005354 
L 133.233424 66.005354 
z
" style="fill:#b79f00;stroke:#808080;stroke-linejoin:miter;"/>
   </g>
   <g id="patch_86">
    <path clip-path="url(#p8300224a37)" d="M 181.755163 69.571305 
L 215.72038 69.571305 
L 215.72038 64.850177 
L 181.755163 64.850177 
z
" style="fill:#b79f00;stroke:#808080;stroke-linejoin:miter;"/>
   </g>
   <g id="patch_87">
    <path clip-path="url(#p8300224a37)" d="M 230.276902 69.86726 
L 264.24212 69.86726 
L 264.24212 65.413099 
L 230.276902 65.413099 
z
" style="fill:#b79f00;stroke:#808080;stroke-linejoin:miter;"/>
   </g>
   <g id="patch_88">
    <path clip-path="url(#p8300224a37)" d="M 278.798641 71.677417 
L 312.763859 71.677417 
L 312.763859 66.993926 
L 278.798641 66.993926 
z
" style="fill:#b79f00;stroke:#808080;stroke-linejoin:miter;"/>
   </g>
   <g id="patch_89">
    <path clip-path="url(#p8300224a37)" d="M 327.32038 72.354621 
L 361.285598 72.354621 
L 361.285598 68.074795 
L 327.32038 68.074795 
z
" style="fill:#b79f00;stroke:#808080;stroke-linejoin:miter;"/>
   </g>
   <g id="patch_90">
    <path clip-path="url(#p8300224a37)" d="M 375.84212 71.02072 
L 409.807337 71.02072 
L 409.807337 67.644835 
L 375.84212 67.644835 
z
" style="fill:#b79f00;stroke:#808080;stroke-linejoin:miter;"/>
   </g>
   <g id="patch_91">
    <path clip-path="url(#p8300224a37)" d="M 424.363859 72.920657 
L 458.329076 72.920657 
L 458.329076 69.187476 
L 424.363859 69.187476 
z
" style="fill:#b79f00;stroke:#808080;stroke-linejoin:miter;"/>
   </g>
   <g id="patch_92">
    <path clip-path="url(#p8300224a37)" d="M 472.885598 73.569034 
L 506.850815 73.569034 
L 506.850815 69.588294 
L 472.885598 69.588294 
z
" style="fill:#b79f00;stroke:#808080;stroke-linejoin:miter;"/>
   </g>
   <g id="patch_93">
    <path clip-path="url(#p8300224a37)" d="M 84.711685 68.114607 
L 118.676902 68.114607 
L 118.676902 57.679339 
L 84.711685 57.679339 
z
" style="fill:#de8c00;stroke:#808080;stroke-linejoin:miter;"/>
   </g>
   <g id="patch_94">
    <path clip-path="url(#p8300224a37)" d="M 133.233424 66.005354 
L 167.198641 66.005354 
L 167.198641 57.351807 
L 133.233424 57.351807 
z
" style="fill:#de8c00;stroke:#808080;stroke-linejoin:miter;"/>
   </g>
   <g id="patch_95">
    <path clip-path="url(#p8300224a37)" d="M 181.755163 64.850177 
L 215.72038 64.850177 
L 215.72038 55.385314 
L 181.755163 55.385314 
z
" style="fill:#de8c00;stroke:#808080;stroke-linejoin:miter;"/>
   </g>
   <g id="patch_96">
    <path clip-path="url(#p8300224a37)" d="M 230.276902 65.413099 
L 264.24212 65.413099 
L 264.24212 54.84727 
L 230.276902 54.84727 
z
" style="fill:#de8c00;stroke:#808080;stroke-linejoin:miter;"/>
   </g>
   <g id="patch_97">
    <path clip-path="url(#p8300224a37)" d="M 278.798641 66.993926 
L 312.763859 66.993926 
L 312.763859 55.863133 
L 278.798641 55.863133 
z
" style="fill:#de8c00;stroke:#808080;stroke-linejoin:miter;"/>
   </g>
   <g id="patch_98">
    <path clip-path="url(#p8300224a37)" d="M 327.32038 68.074795 
L 361.285598 68.074795 
L 361.285598 56.69416 
L 327.32038 56.69416 
z
" style="fill:#de8c00;stroke:#808080;stroke-linejoin:miter;"/>
   </g>
   <g id="patch_99">
    <path clip-path="url(#p8300224a37)" d="M 375.84212 67.644835 
L 409.807337 67.644835 
L 409.807337 56.086306 
L 375.84212 56.086306 
z
" style="fill:#de8c00;stroke:#808080;stroke-linejoin:miter;"/>
   </g>
   <g id="patch_100">
    <path clip-path="url(#p8300224a37)" d="M 424.363859 69.187476 
L 458.329076 69.187476 
L 458.329076 55.593251 
L 424.363859 55.593251 
z
" style="fill:#de8c00;stroke:#808080;stroke-linejoin:miter;"/>
   </g>
   <g id="patch_101">
    <path clip-path="url(#p8300224a37)" d="M 472.885598 69.588294 
L 506.850815 69.588294 
L 506.850815 55.65725 
L 472.885598 55.65725 
z
" style="fill:#de8c00;stroke:#808080;stroke-linejoin:miter;"/>
   </g>
   <g id="patch_102">
    <path clip-path="url(#p8300224a37)" d="M 84.711685 57.679339 
L 118.676902 57.679339 
L 118.676902 51.531429 
L 84.711685 51.531429 
z
" style="fill:#f8766d;stroke:#808080;stroke-linejoin:miter;"/>
   </g>
   <g id="patch_103">
    <path clip-path="url(#p8300224a37)" d="M 133.233424 57.351807 
L 167.198641 57.351807 
L 167.198641 51.531429 
L 133.233424 51.531429 
z
" style="fill:#f8766d;stroke:#808080;stroke-linejoin:miter;"/>
   </g>
   <g id="patch_104">
    <path clip-path="url(#p8300224a37)" d="M 181.755163 55.385314 
L 215.72038 55.385314 
L 215.72038 51.531429 
L 181.755163 51.531429 
z
" style="fill:#f8766d;stroke:#808080;stroke-linejoin:miter;"/>
   </g>
   <g id="patch_105">
    <path clip-path="url(#p8300224a37)" d="M 230.276902 54.84727 
L 264.24212 54.84727 
L 264.24212 51.531429 
L 230.276902 51.531429 
z
" style="fill:#f8766d;stroke:#808080;stroke-linejoin:miter;"/>
   </g>
   <g id="patch_106">
    <path clip-path="url(#p8300224a37)" d="M 278.798641 55.863133 
L 312.763859 55.863133 
L 312.763859 51.531429 
L 278.798641 51.531429 
z
" style="fill:#f8766d;stroke:#808080;stroke-linejoin:miter;"/>
   </g>
   <g id="patch_107">
    <path clip-path="url(#p8300224a37)" d="M 327.32038 56.69416 
L 361.285598 56.69416 
L 361.285598 51.531429 
L 327.32038 51.531429 
z
" style="fill:#f8766d;stroke:#808080;stroke-linejoin:miter;"/>
   </g>
   <g id="patch_108">
    <path clip-path="url(#p8300224a37)" d="M 375.84212 56.086306 
L 409.807337 56.086306 
L 409.807337 51.531429 
L 375.84212 51.531429 
z
" style="fill:#f8766d;stroke:#808080;stroke-linejoin:miter;"/>
   </g>
   <g id="patch_109">
    <path clip-path="url(#p8300224a37)" d="M 424.363859 55.593251 
L 458.329076 55.593251 
L 458.329076 51.531429 
L 424.363859 51.531429 
z
" style="fill:#f8766d;stroke:#808080;stroke-linejoin:miter;"/>
   </g>
   <g id="patch_110">
    <path clip-path="url(#p8300224a37)" d="M 472.885598 55.65725 
L 506.850815 55.65725 
L 506.850815 51.531429 
L 472.885598 51.531429 
z
" style="fill:#f8766d;stroke:#808080;stroke-linejoin:miter;"/>
   </g>
   <g id="matplotlib.axis_1">
    <g id="xtick_1">
     <g id="line2d_1">
      <defs>
       <path d="M 0 0 
L 0 3.5 
" id="m253255fd12" style="stroke:#000000;stroke-width:0.8;"/>
      </defs>
      <g>
       <use style="stroke:#000000;stroke-width:0.8;" x="101.694293" xlink:href="#m253255fd12" y="362.16"/>
      </g>
     </g>
     <g id="text_1">
      <!-- 2019-12_-_2020-04 -->
      <g transform="translate(104.226325 466.333438)rotate(-90)scale(0.1 -0.1)">
       <defs>
        <path d="M 1228 531 
L 3431 531 
L 3431 0 
L 469 0 
L 469 531 
Q 828 903 1448 1529 
Q 2069 2156 2228 2338 
Q 2531 2678 2651 2914 
Q 2772 3150 2772 3378 
Q 2772 3750 2511 3984 
Q 2250 4219 1831 4219 
Q 1534 4219 1204 4116 
Q 875 4013 500 3803 
L 500 4441 
Q 881 4594 1212 4672 
Q 1544 4750 1819 4750 
Q 2544 4750 2975 4387 
Q 3406 4025 3406 3419 
Q 3406 3131 3298 2873 
Q 3191 2616 2906 2266 
Q 2828 2175 2409 1742 
Q 1991 1309 1228 531 
z
" id="DejaVuSans-32" transform="scale(0.015625)"/>
        <path d="M 2034 4250 
Q 1547 4250 1301 3770 
Q 1056 3291 1056 2328 
Q 1056 1369 1301 889 
Q 1547 409 2034 409 
Q 2525 409 2770 889 
Q 3016 1369 3016 2328 
Q 3016 3291 2770 3770 
Q 2525 4250 2034 4250 
z
M 2034 4750 
Q 2819 4750 3233 4129 
Q 3647 3509 3647 2328 
Q 3647 1150 3233 529 
Q 2819 -91 2034 -91 
Q 1250 -91 836 529 
Q 422 1150 422 2328 
Q 422 3509 836 4129 
Q 1250 4750 2034 4750 
z
" id="DejaVuSans-30" transform="scale(0.015625)"/>
        <path d="M 794 531 
L 1825 531 
L 1825 4091 
L 703 3866 
L 703 4441 
L 1819 4666 
L 2450 4666 
L 2450 531 
L 3481 531 
L 3481 0 
L 794 0 
L 794 531 
z
" id="DejaVuSans-31" transform="scale(0.015625)"/>
        <path d="M 703 97 
L 703 672 
Q 941 559 1184 500 
Q 1428 441 1663 441 
Q 2288 441 2617 861 
Q 2947 1281 2994 2138 
Q 2813 1869 2534 1725 
Q 2256 1581 1919 1581 
Q 1219 1581 811 2004 
Q 403 2428 403 3163 
Q 403 3881 828 4315 
Q 1253 4750 1959 4750 
Q 2769 4750 3195 4129 
Q 3622 3509 3622 2328 
Q 3622 1225 3098 567 
Q 2575 -91 1691 -91 
Q 1453 -91 1209 -44 
Q 966 3 703 97 
z
M 1959 2075 
Q 2384 2075 2632 2365 
Q 2881 2656 2881 3163 
Q 2881 3666 2632 3958 
Q 2384 4250 1959 4250 
Q 1534 4250 1286 3958 
Q 1038 3666 1038 3163 
Q 1038 2656 1286 2365 
Q 1534 2075 1959 2075 
z
" id="DejaVuSans-39" transform="scale(0.015625)"/>
        <path d="M 313 2009 
L 1997 2009 
L 1997 1497 
L 313 1497 
L 313 2009 
z
" id="DejaVuSans-2d" transform="scale(0.015625)"/>
        <path d="M 3263 -1063 
L 3263 -1509 
L -63 -1509 
L -63 -1063 
L 3263 -1063 
z
" id="DejaVuSans-5f" transform="scale(0.015625)"/>
        <path d="M 2419 4116 
L 825 1625 
L 2419 1625 
L 2419 4116 
z
M 2253 4666 
L 3047 4666 
L 3047 1625 
L 3713 1625 
L 3713 1100 
L 3047 1100 
L 3047 0 
L 2419 0 
L 2419 1100 
L 313 1100 
L 313 1709 
L 2253 4666 
z
" id="DejaVuSans-34" transform="scale(0.015625)"/>
       </defs>
       <use xlink:href="#DejaVuSans-32"/>
       <use x="63.623047" xlink:href="#DejaVuSans-30"/>
       <use x="127.246094" xlink:href="#DejaVuSans-31"/>
       <use x="190.869141" xlink:href="#DejaVuSans-39"/>
       <use x="254.492188" xlink:href="#DejaVuSans-2d"/>
       <use x="290.576172" xlink:href="#DejaVuSans-31"/>
       <use x="354.199219" xlink:href="#DejaVuSans-32"/>
       <use x="417.822266" xlink:href="#DejaVuSans-5f"/>
       <use x="467.822266" xlink:href="#DejaVuSans-2d"/>
       <use x="503.90625" xlink:href="#DejaVuSans-5f"/>
       <use x="553.90625" xlink:href="#DejaVuSans-32"/>
       <use x="617.529297" xlink:href="#DejaVuSans-30"/>
       <use x="681.152344" xlink:href="#DejaVuSans-32"/>
       <use x="744.775391" xlink:href="#DejaVuSans-30"/>
       <use x="808.398438" xlink:href="#DejaVuSans-2d"/>
       <use x="844.482422" xlink:href="#DejaVuSans-30"/>
       <use x="908.105469" xlink:href="#DejaVuSans-34"/>
      </g>
     </g>
    </g>
    <g id="xtick_2">
     <g id="line2d_2">
      <g>
       <use style="stroke:#000000;stroke-width:0.8;" x="150.216033" xlink:href="#m253255fd12" y="362.16"/>
      </g>
     </g>
     <g id="text_2">
      <!-- 2020-05_-_2020-07 -->
      <g transform="translate(152.748064 466.333438)rotate(-90)scale(0.1 -0.1)">
       <defs>
        <path d="M 691 4666 
L 3169 4666 
L 3169 4134 
L 1269 4134 
L 1269 2991 
Q 1406 3038 1543 3061 
Q 1681 3084 1819 3084 
Q 2600 3084 3056 2656 
Q 3513 2228 3513 1497 
Q 3513 744 3044 326 
Q 2575 -91 1722 -91 
Q 1428 -91 1123 -41 
Q 819 9 494 109 
L 494 744 
Q 775 591 1075 516 
Q 1375 441 1709 441 
Q 2250 441 2565 725 
Q 2881 1009 2881 1497 
Q 2881 1984 2565 2268 
Q 2250 2553 1709 2553 
Q 1456 2553 1204 2497 
Q 953 2441 691 2322 
L 691 4666 
z
" id="DejaVuSans-35" transform="scale(0.015625)"/>
        <path d="M 525 4666 
L 3525 4666 
L 3525 4397 
L 1831 0 
L 1172 0 
L 2766 4134 
L 525 4134 
L 525 4666 
z
" id="DejaVuSans-37" transform="scale(0.015625)"/>
       </defs>
       <use xlink:href="#DejaVuSans-32"/>
       <use x="63.623047" xlink:href="#DejaVuSans-30"/>
       <use x="127.246094" xlink:href="#DejaVuSans-32"/>
       <use x="190.869141" xlink:href="#DejaVuSans-30"/>
       <use x="254.492188" xlink:href="#DejaVuSans-2d"/>
       <use x="290.576172" xlink:href="#DejaVuSans-30"/>
       <use x="354.199219" xlink:href="#DejaVuSans-35"/>
       <use x="417.822266" xlink:href="#DejaVuSans-5f"/>
       <use x="467.822266" xlink:href="#DejaVuSans-2d"/>
       <use x="503.90625" xlink:href="#DejaVuSans-5f"/>
       <use x="553.90625" xlink:href="#DejaVuSans-32"/>
       <use x="617.529297" xlink:href="#DejaVuSans-30"/>
       <use x="681.152344" xlink:href="#DejaVuSans-32"/>
       <use x="744.775391" xlink:href="#DejaVuSans-30"/>
       <use x="808.398438" xlink:href="#DejaVuSans-2d"/>
       <use x="844.482422" xlink:href="#DejaVuSans-30"/>
       <use x="908.105469" xlink:href="#DejaVuSans-37"/>
      </g>
     </g>
    </g>
    <g id="xtick_3">
     <g id="line2d_3">
      <g>
       <use style="stroke:#000000;stroke-width:0.8;" x="198.737772" xlink:href="#m253255fd12" y="362.16"/>
      </g>
     </g>
     <g id="text_3">
      <!-- 2020-08_-_2020-10 -->
      <g transform="translate(201.269803 466.333438)rotate(-90)scale(0.1 -0.1)">
       <defs>
        <path d="M 2034 2216 
Q 1584 2216 1326 1975 
Q 1069 1734 1069 1313 
Q 1069 891 1326 650 
Q 1584 409 2034 409 
Q 2484 409 2743 651 
Q 3003 894 3003 1313 
Q 3003 1734 2745 1975 
Q 2488 2216 2034 2216 
z
M 1403 2484 
Q 997 2584 770 2862 
Q 544 3141 544 3541 
Q 544 4100 942 4425 
Q 1341 4750 2034 4750 
Q 2731 4750 3128 4425 
Q 3525 4100 3525 3541 
Q 3525 3141 3298 2862 
Q 3072 2584 2669 2484 
Q 3125 2378 3379 2068 
Q 3634 1759 3634 1313 
Q 3634 634 3220 271 
Q 2806 -91 2034 -91 
Q 1263 -91 848 271 
Q 434 634 434 1313 
Q 434 1759 690 2068 
Q 947 2378 1403 2484 
z
M 1172 3481 
Q 1172 3119 1398 2916 
Q 1625 2713 2034 2713 
Q 2441 2713 2670 2916 
Q 2900 3119 2900 3481 
Q 2900 3844 2670 4047 
Q 2441 4250 2034 4250 
Q 1625 4250 1398 4047 
Q 1172 3844 1172 3481 
z
" id="DejaVuSans-38" transform="scale(0.015625)"/>
       </defs>
       <use xlink:href="#DejaVuSans-32"/>
       <use x="63.623047" xlink:href="#DejaVuSans-30"/>
       <use x="127.246094" xlink:href="#DejaVuSans-32"/>
       <use x="190.869141" xlink:href="#DejaVuSans-30"/>
       <use x="254.492188" xlink:href="#DejaVuSans-2d"/>
       <use x="290.576172" xlink:href="#DejaVuSans-30"/>
       <use x="354.199219" xlink:href="#DejaVuSans-38"/>
       <use x="417.822266" xlink:href="#DejaVuSans-5f"/>
       <use x="467.822266" xlink:href="#DejaVuSans-2d"/>
       <use x="503.90625" xlink:href="#DejaVuSans-5f"/>
       <use x="553.90625" xlink:href="#DejaVuSans-32"/>
       <use x="617.529297" xlink:href="#DejaVuSans-30"/>
       <use x="681.152344" xlink:href="#DejaVuSans-32"/>
       <use x="744.775391" xlink:href="#DejaVuSans-30"/>
       <use x="808.398438" xlink:href="#DejaVuSans-2d"/>
       <use x="844.482422" xlink:href="#DejaVuSans-31"/>
       <use x="908.105469" xlink:href="#DejaVuSans-30"/>
      </g>
     </g>
    </g>
    <g id="xtick_4">
     <g id="line2d_4">
      <g>
       <use style="stroke:#000000;stroke-width:0.8;" x="247.259511" xlink:href="#m253255fd12" y="362.16"/>
      </g>
     </g>
     <g id="text_4">
      <!-- 2020-11_-_2020-12 -->
      <g transform="translate(249.791542 466.333438)rotate(-90)scale(0.1 -0.1)">
       <use xlink:href="#DejaVuSans-32"/>
       <use x="63.623047" xlink:href="#DejaVuSans-30"/>
       <use x="127.246094" xlink:href="#DejaVuSans-32"/>
       <use x="190.869141" xlink:href="#DejaVuSans-30"/>
       <use x="254.492188" xlink:href="#DejaVuSans-2d"/>
       <use x="290.576172" xlink:href="#DejaVuSans-31"/>
       <use x="354.199219" xlink:href="#DejaVuSans-31"/>
       <use x="417.822266" xlink:href="#DejaVuSans-5f"/>
       <use x="467.822266" xlink:href="#DejaVuSans-2d"/>
       <use x="503.90625" xlink:href="#DejaVuSans-5f"/>
       <use x="553.90625" xlink:href="#DejaVuSans-32"/>
       <use x="617.529297" xlink:href="#DejaVuSans-30"/>
       <use x="681.152344" xlink:href="#DejaVuSans-32"/>
       <use x="744.775391" xlink:href="#DejaVuSans-30"/>
       <use x="808.398438" xlink:href="#DejaVuSans-2d"/>
       <use x="844.482422" xlink:href="#DejaVuSans-31"/>
       <use x="908.105469" xlink:href="#DejaVuSans-32"/>
      </g>
     </g>
    </g>
    <g id="xtick_5">
     <g id="line2d_5">
      <g>
       <use style="stroke:#000000;stroke-width:0.8;" x="295.78125" xlink:href="#m253255fd12" y="362.16"/>
      </g>
     </g>
     <g id="text_5">
      <!-- 2021-01_-_2021-02 -->
      <g transform="translate(298.313281 466.333438)rotate(-90)scale(0.1 -0.1)">
       <use xlink:href="#DejaVuSans-32"/>
       <use x="63.623047" xlink:href="#DejaVuSans-30"/>
       <use x="127.246094" xlink:href="#DejaVuSans-32"/>
       <use x="190.869141" xlink:href="#DejaVuSans-31"/>
       <use x="254.492188" xlink:href="#DejaVuSans-2d"/>
       <use x="290.576172" xlink:href="#DejaVuSans-30"/>
       <use x="354.199219" xlink:href="#DejaVuSans-31"/>
       <use x="417.822266" xlink:href="#DejaVuSans-5f"/>
       <use x="467.822266" xlink:href="#DejaVuSans-2d"/>
       <use x="503.90625" xlink:href="#DejaVuSans-5f"/>
       <use x="553.90625" xlink:href="#DejaVuSans-32"/>
       <use x="617.529297" xlink:href="#DejaVuSans-30"/>
       <use x="681.152344" xlink:href="#DejaVuSans-32"/>
       <use x="744.775391" xlink:href="#DejaVuSans-31"/>
       <use x="808.398438" xlink:href="#DejaVuSans-2d"/>
       <use x="844.482422" xlink:href="#DejaVuSans-30"/>
       <use x="908.105469" xlink:href="#DejaVuSans-32"/>
      </g>
     </g>
    </g>
    <g id="xtick_6">
     <g id="line2d_6">
      <g>
       <use style="stroke:#000000;stroke-width:0.8;" x="344.302989" xlink:href="#m253255fd12" y="362.16"/>
      </g>
     </g>
     <g id="text_6">
      <!-- 2021-03_-_2021-04 -->
      <g transform="translate(346.83502 466.333438)rotate(-90)scale(0.1 -0.1)">
       <defs>
        <path d="M 2597 2516 
Q 3050 2419 3304 2112 
Q 3559 1806 3559 1356 
Q 3559 666 3084 287 
Q 2609 -91 1734 -91 
Q 1441 -91 1130 -33 
Q 819 25 488 141 
L 488 750 
Q 750 597 1062 519 
Q 1375 441 1716 441 
Q 2309 441 2620 675 
Q 2931 909 2931 1356 
Q 2931 1769 2642 2001 
Q 2353 2234 1838 2234 
L 1294 2234 
L 1294 2753 
L 1863 2753 
Q 2328 2753 2575 2939 
Q 2822 3125 2822 3475 
Q 2822 3834 2567 4026 
Q 2313 4219 1838 4219 
Q 1578 4219 1281 4162 
Q 984 4106 628 3988 
L 628 4550 
Q 988 4650 1302 4700 
Q 1616 4750 1894 4750 
Q 2613 4750 3031 4423 
Q 3450 4097 3450 3541 
Q 3450 3153 3228 2886 
Q 3006 2619 2597 2516 
z
" id="DejaVuSans-33" transform="scale(0.015625)"/>
       </defs>
       <use xlink:href="#DejaVuSans-32"/>
       <use x="63.623047" xlink:href="#DejaVuSans-30"/>
       <use x="127.246094" xlink:href="#DejaVuSans-32"/>
       <use x="190.869141" xlink:href="#DejaVuSans-31"/>
       <use x="254.492188" xlink:href="#DejaVuSans-2d"/>
       <use x="290.576172" xlink:href="#DejaVuSans-30"/>
       <use x="354.199219" xlink:href="#DejaVuSans-33"/>
       <use x="417.822266" xlink:href="#DejaVuSans-5f"/>
       <use x="467.822266" xlink:href="#DejaVuSans-2d"/>
       <use x="503.90625" xlink:href="#DejaVuSans-5f"/>
       <use x="553.90625" xlink:href="#DejaVuSans-32"/>
       <use x="617.529297" xlink:href="#DejaVuSans-30"/>
       <use x="681.152344" xlink:href="#DejaVuSans-32"/>
       <use x="744.775391" xlink:href="#DejaVuSans-31"/>
       <use x="808.398438" xlink:href="#DejaVuSans-2d"/>
       <use x="844.482422" xlink:href="#DejaVuSans-30"/>
       <use x="908.105469" xlink:href="#DejaVuSans-34"/>
      </g>
     </g>
    </g>
    <g id="xtick_7">
     <g id="line2d_7">
      <g>
       <use style="stroke:#000000;stroke-width:0.8;" x="392.824728" xlink:href="#m253255fd12" y="362.16"/>
      </g>
     </g>
     <g id="text_7">
      <!-- 2021-05_-_2021-06 -->
      <g transform="translate(395.35676 466.333438)rotate(-90)scale(0.1 -0.1)">
       <defs>
        <path d="M 2113 2584 
Q 1688 2584 1439 2293 
Q 1191 2003 1191 1497 
Q 1191 994 1439 701 
Q 1688 409 2113 409 
Q 2538 409 2786 701 
Q 3034 994 3034 1497 
Q 3034 2003 2786 2293 
Q 2538 2584 2113 2584 
z
M 3366 4563 
L 3366 3988 
Q 3128 4100 2886 4159 
Q 2644 4219 2406 4219 
Q 1781 4219 1451 3797 
Q 1122 3375 1075 2522 
Q 1259 2794 1537 2939 
Q 1816 3084 2150 3084 
Q 2853 3084 3261 2657 
Q 3669 2231 3669 1497 
Q 3669 778 3244 343 
Q 2819 -91 2113 -91 
Q 1303 -91 875 529 
Q 447 1150 447 2328 
Q 447 3434 972 4092 
Q 1497 4750 2381 4750 
Q 2619 4750 2861 4703 
Q 3103 4656 3366 4563 
z
" id="DejaVuSans-36" transform="scale(0.015625)"/>
       </defs>
       <use xlink:href="#DejaVuSans-32"/>
       <use x="63.623047" xlink:href="#DejaVuSans-30"/>
       <use x="127.246094" xlink:href="#DejaVuSans-32"/>
       <use x="190.869141" xlink:href="#DejaVuSans-31"/>
       <use x="254.492188" xlink:href="#DejaVuSans-2d"/>
       <use x="290.576172" xlink:href="#DejaVuSans-30"/>
       <use x="354.199219" xlink:href="#DejaVuSans-35"/>
       <use x="417.822266" xlink:href="#DejaVuSans-5f"/>
       <use x="467.822266" xlink:href="#DejaVuSans-2d"/>
       <use x="503.90625" xlink:href="#DejaVuSans-5f"/>
       <use x="553.90625" xlink:href="#DejaVuSans-32"/>
       <use x="617.529297" xlink:href="#DejaVuSans-30"/>
       <use x="681.152344" xlink:href="#DejaVuSans-32"/>
       <use x="744.775391" xlink:href="#DejaVuSans-31"/>
       <use x="808.398438" xlink:href="#DejaVuSans-2d"/>
       <use x="844.482422" xlink:href="#DejaVuSans-30"/>
       <use x="908.105469" xlink:href="#DejaVuSans-36"/>
      </g>
     </g>
    </g>
    <g id="xtick_8">
     <g id="line2d_8">
      <g>
       <use style="stroke:#000000;stroke-width:0.8;" x="441.346467" xlink:href="#m253255fd12" y="362.16"/>
      </g>
     </g>
     <g id="text_8">
      <!-- 2021-07_-_2021-08 -->
      <g transform="translate(443.878499 466.333438)rotate(-90)scale(0.1 -0.1)">
       <use xlink:href="#DejaVuSans-32"/>
       <use x="63.623047" xlink:href="#DejaVuSans-30"/>
       <use x="127.246094" xlink:href="#DejaVuSans-32"/>
       <use x="190.869141" xlink:href="#DejaVuSans-31"/>
       <use x="254.492188" xlink:href="#DejaVuSans-2d"/>
       <use x="290.576172" xlink:href="#DejaVuSans-30"/>
       <use x="354.199219" xlink:href="#DejaVuSans-37"/>
       <use x="417.822266" xlink:href="#DejaVuSans-5f"/>
       <use x="467.822266" xlink:href="#DejaVuSans-2d"/>
       <use x="503.90625" xlink:href="#DejaVuSans-5f"/>
       <use x="553.90625" xlink:href="#DejaVuSans-32"/>
       <use x="617.529297" xlink:href="#DejaVuSans-30"/>
       <use x="681.152344" xlink:href="#DejaVuSans-32"/>
       <use x="744.775391" xlink:href="#DejaVuSans-31"/>
       <use x="808.398438" xlink:href="#DejaVuSans-2d"/>
       <use x="844.482422" xlink:href="#DejaVuSans-30"/>
       <use x="908.105469" xlink:href="#DejaVuSans-38"/>
      </g>
     </g>
    </g>
    <g id="xtick_9">
     <g id="line2d_9">
      <g>
       <use style="stroke:#000000;stroke-width:0.8;" x="489.868207" xlink:href="#m253255fd12" y="362.16"/>
      </g>
     </g>
     <g id="text_9">
      <!-- 2021-09_-_2021-10 -->
      <g transform="translate(492.400238 466.333438)rotate(-90)scale(0.1 -0.1)">
       <use xlink:href="#DejaVuSans-32"/>
       <use x="63.623047" xlink:href="#DejaVuSans-30"/>
       <use x="127.246094" xlink:href="#DejaVuSans-32"/>
       <use x="190.869141" xlink:href="#DejaVuSans-31"/>
       <use x="254.492188" xlink:href="#DejaVuSans-2d"/>
       <use x="290.576172" xlink:href="#DejaVuSans-30"/>
       <use x="354.199219" xlink:href="#DejaVuSans-39"/>
       <use x="417.822266" xlink:href="#DejaVuSans-5f"/>
       <use x="467.822266" xlink:href="#DejaVuSans-2d"/>
       <use x="503.90625" xlink:href="#DejaVuSans-5f"/>
       <use x="553.90625" xlink:href="#DejaVuSans-32"/>
       <use x="617.529297" xlink:href="#DejaVuSans-30"/>
       <use x="681.152344" xlink:href="#DejaVuSans-32"/>
       <use x="744.775391" xlink:href="#DejaVuSans-31"/>
       <use x="808.398438" xlink:href="#DejaVuSans-2d"/>
       <use x="844.482422" xlink:href="#DejaVuSans-31"/>
       <use x="908.105469" xlink:href="#DejaVuSans-30"/>
      </g>
     </g>
    </g>
    <g id="text_10">
     <!-- Time period -->
     <g transform="translate(266.029688 477.931875)scale(0.1 -0.1)">
      <defs>
       <path d="M -19 4666 
L 3928 4666 
L 3928 4134 
L 2272 4134 
L 2272 0 
L 1638 0 
L 1638 4134 
L -19 4134 
L -19 4666 
z
" id="DejaVuSans-54" transform="scale(0.015625)"/>
       <path d="M 603 3500 
L 1178 3500 
L 1178 0 
L 603 0 
L 603 3500 
z
M 603 4863 
L 1178 4863 
L 1178 4134 
L 603 4134 
L 603 4863 
z
" id="DejaVuSans-69" transform="scale(0.015625)"/>
       <path d="M 3328 2828 
Q 3544 3216 3844 3400 
Q 4144 3584 4550 3584 
Q 5097 3584 5394 3201 
Q 5691 2819 5691 2113 
L 5691 0 
L 5113 0 
L 5113 2094 
Q 5113 2597 4934 2840 
Q 4756 3084 4391 3084 
Q 3944 3084 3684 2787 
Q 3425 2491 3425 1978 
L 3425 0 
L 2847 0 
L 2847 2094 
Q 2847 2600 2669 2842 
Q 2491 3084 2119 3084 
Q 1678 3084 1418 2786 
Q 1159 2488 1159 1978 
L 1159 0 
L 581 0 
L 581 3500 
L 1159 3500 
L 1159 2956 
Q 1356 3278 1631 3431 
Q 1906 3584 2284 3584 
Q 2666 3584 2933 3390 
Q 3200 3197 3328 2828 
z
" id="DejaVuSans-6d" transform="scale(0.015625)"/>
       <path d="M 3597 1894 
L 3597 1613 
L 953 1613 
Q 991 1019 1311 708 
Q 1631 397 2203 397 
Q 2534 397 2845 478 
Q 3156 559 3463 722 
L 3463 178 
Q 3153 47 2828 -22 
Q 2503 -91 2169 -91 
Q 1331 -91 842 396 
Q 353 884 353 1716 
Q 353 2575 817 3079 
Q 1281 3584 2069 3584 
Q 2775 3584 3186 3129 
Q 3597 2675 3597 1894 
z
M 3022 2063 
Q 3016 2534 2758 2815 
Q 2500 3097 2075 3097 
Q 1594 3097 1305 2825 
Q 1016 2553 972 2059 
L 3022 2063 
z
" id="DejaVuSans-65" transform="scale(0.015625)"/>
       <path id="DejaVuSans-20" transform="scale(0.015625)"/>
       <path d="M 1159 525 
L 1159 -1331 
L 581 -1331 
L 581 3500 
L 1159 3500 
L 1159 2969 
Q 1341 3281 1617 3432 
Q 1894 3584 2278 3584 
Q 2916 3584 3314 3078 
Q 3713 2572 3713 1747 
Q 3713 922 3314 415 
Q 2916 -91 2278 -91 
Q 1894 -91 1617 61 
Q 1341 213 1159 525 
z
M 3116 1747 
Q 3116 2381 2855 2742 
Q 2594 3103 2138 3103 
Q 1681 3103 1420 2742 
Q 1159 2381 1159 1747 
Q 1159 1113 1420 752 
Q 1681 391 2138 391 
Q 2594 391 2855 752 
Q 3116 1113 3116 1747 
z
" id="DejaVuSans-70" transform="scale(0.015625)"/>
       <path d="M 2631 2963 
Q 2534 3019 2420 3045 
Q 2306 3072 2169 3072 
Q 1681 3072 1420 2755 
Q 1159 2438 1159 1844 
L 1159 0 
L 581 0 
L 581 3500 
L 1159 3500 
L 1159 2956 
Q 1341 3275 1631 3429 
Q 1922 3584 2338 3584 
Q 2397 3584 2469 3576 
Q 2541 3569 2628 3553 
L 2631 2963 
z
" id="DejaVuSans-72" transform="scale(0.015625)"/>
       <path d="M 1959 3097 
Q 1497 3097 1228 2736 
Q 959 2375 959 1747 
Q 959 1119 1226 758 
Q 1494 397 1959 397 
Q 2419 397 2687 759 
Q 2956 1122 2956 1747 
Q 2956 2369 2687 2733 
Q 2419 3097 1959 3097 
z
M 1959 3584 
Q 2709 3584 3137 3096 
Q 3566 2609 3566 1747 
Q 3566 888 3137 398 
Q 2709 -91 1959 -91 
Q 1206 -91 779 398 
Q 353 888 353 1747 
Q 353 2609 779 3096 
Q 1206 3584 1959 3584 
z
" id="DejaVuSans-6f" transform="scale(0.015625)"/>
       <path d="M 2906 2969 
L 2906 4863 
L 3481 4863 
L 3481 0 
L 2906 0 
L 2906 525 
Q 2725 213 2448 61 
Q 2172 -91 1784 -91 
Q 1150 -91 751 415 
Q 353 922 353 1747 
Q 353 2572 751 3078 
Q 1150 3584 1784 3584 
Q 2172 3584 2448 3432 
Q 2725 3281 2906 2969 
z
M 947 1747 
Q 947 1113 1208 752 
Q 1469 391 1925 391 
Q 2381 391 2643 752 
Q 2906 1113 2906 1747 
Q 2906 2381 2643 2742 
Q 2381 3103 1925 3103 
Q 1469 3103 1208 2742 
Q 947 2381 947 1747 
z
" id="DejaVuSans-64" transform="scale(0.015625)"/>
      </defs>
      <use xlink:href="#DejaVuSans-54"/>
      <use x="57.958984" xlink:href="#DejaVuSans-69"/>
      <use x="85.742188" xlink:href="#DejaVuSans-6d"/>
      <use x="183.154297" xlink:href="#DejaVuSans-65"/>
      <use x="244.677734" xlink:href="#DejaVuSans-20"/>
      <use x="276.464844" xlink:href="#DejaVuSans-70"/>
      <use x="339.941406" xlink:href="#DejaVuSans-65"/>
      <use x="401.464844" xlink:href="#DejaVuSans-72"/>
      <use x="442.578125" xlink:href="#DejaVuSans-69"/>
      <use x="470.361328" xlink:href="#DejaVuSans-6f"/>
      <use x="531.542969" xlink:href="#DejaVuSans-64"/>
     </g>
    </g>
   </g>
   <g id="matplotlib.axis_2">
    <g id="ytick_1">
     <g id="line2d_10">
      <defs>
       <path d="M 0 0 
L -3.5 0 
" id="m159384f2a2" style="stroke:#000000;stroke-width:0.8;"/>
      </defs>
      <g>
       <use style="stroke:#000000;stroke-width:0.8;" x="72.58125" xlink:href="#m159384f2a2" y="362.16"/>
      </g>
     </g>
     <g id="text_11">
      <!-- 0.0 -->
      <g transform="translate(49.678125 365.959219)scale(0.1 -0.1)">
       <defs>
        <path d="M 684 794 
L 1344 794 
L 1344 0 
L 684 0 
L 684 794 
z
" id="DejaVuSans-2e" transform="scale(0.015625)"/>
       </defs>
       <use xlink:href="#DejaVuSans-30"/>
       <use x="63.623047" xlink:href="#DejaVuSans-2e"/>
       <use x="95.410156" xlink:href="#DejaVuSans-30"/>
      </g>
     </g>
    </g>
    <g id="ytick_2">
     <g id="line2d_11">
      <g>
       <use style="stroke:#000000;stroke-width:0.8;" x="72.58125" xlink:href="#m159384f2a2" y="300.034286"/>
      </g>
     </g>
     <g id="text_12">
      <!-- 0.2 -->
      <g transform="translate(49.678125 303.833504)scale(0.1 -0.1)">
       <use xlink:href="#DejaVuSans-30"/>
       <use x="63.623047" xlink:href="#DejaVuSans-2e"/>
       <use x="95.410156" xlink:href="#DejaVuSans-32"/>
      </g>
     </g>
    </g>
    <g id="ytick_3">
     <g id="line2d_12">
      <g>
       <use style="stroke:#000000;stroke-width:0.8;" x="72.58125" xlink:href="#m159384f2a2" y="237.908571"/>
      </g>
     </g>
     <g id="text_13">
      <!-- 0.4 -->
      <g transform="translate(49.678125 241.70779)scale(0.1 -0.1)">
       <use xlink:href="#DejaVuSans-30"/>
       <use x="63.623047" xlink:href="#DejaVuSans-2e"/>
       <use x="95.410156" xlink:href="#DejaVuSans-34"/>
      </g>
     </g>
    </g>
    <g id="ytick_4">
     <g id="line2d_13">
      <g>
       <use style="stroke:#000000;stroke-width:0.8;" x="72.58125" xlink:href="#m159384f2a2" y="175.782857"/>
      </g>
     </g>
     <g id="text_14">
      <!-- 0.6 -->
      <g transform="translate(49.678125 179.582076)scale(0.1 -0.1)">
       <use xlink:href="#DejaVuSans-30"/>
       <use x="63.623047" xlink:href="#DejaVuSans-2e"/>
       <use x="95.410156" xlink:href="#DejaVuSans-36"/>
      </g>
     </g>
    </g>
    <g id="ytick_5">
     <g id="line2d_14">
      <g>
       <use style="stroke:#000000;stroke-width:0.8;" x="72.58125" xlink:href="#m159384f2a2" y="113.657143"/>
      </g>
     </g>
     <g id="text_15">
      <!-- 0.8 -->
      <g transform="translate(49.678125 117.456362)scale(0.1 -0.1)">
       <use xlink:href="#DejaVuSans-30"/>
       <use x="63.623047" xlink:href="#DejaVuSans-2e"/>
       <use x="95.410156" xlink:href="#DejaVuSans-38"/>
      </g>
     </g>
    </g>
    <g id="ytick_6">
     <g id="line2d_15">
      <g>
       <use style="stroke:#000000;stroke-width:0.8;" x="72.58125" xlink:href="#m159384f2a2" y="51.531429"/>
      </g>
     </g>
     <g id="text_16">
      <!-- 1.0 -->
      <g transform="translate(49.678125 55.330647)scale(0.1 -0.1)">
       <use xlink:href="#DejaVuSans-31"/>
       <use x="63.623047" xlink:href="#DejaVuSans-2e"/>
       <use x="95.410156" xlink:href="#DejaVuSans-30"/>
      </g>
     </g>
    </g>
    <g id="text_17">
     <!-- MutSpec -->
     <g transform="translate(43.598438 220.697188)rotate(-90)scale(0.1 -0.1)">
      <defs>
       <path d="M 628 4666 
L 1569 4666 
L 2759 1491 
L 3956 4666 
L 4897 4666 
L 4897 0 
L 4281 0 
L 4281 4097 
L 3078 897 
L 2444 897 
L 1241 4097 
L 1241 0 
L 628 0 
L 628 4666 
z
" id="DejaVuSans-4d" transform="scale(0.015625)"/>
       <path d="M 544 1381 
L 544 3500 
L 1119 3500 
L 1119 1403 
Q 1119 906 1312 657 
Q 1506 409 1894 409 
Q 2359 409 2629 706 
Q 2900 1003 2900 1516 
L 2900 3500 
L 3475 3500 
L 3475 0 
L 2900 0 
L 2900 538 
Q 2691 219 2414 64 
Q 2138 -91 1772 -91 
Q 1169 -91 856 284 
Q 544 659 544 1381 
z
M 1991 3584 
L 1991 3584 
z
" id="DejaVuSans-75" transform="scale(0.015625)"/>
       <path d="M 1172 4494 
L 1172 3500 
L 2356 3500 
L 2356 3053 
L 1172 3053 
L 1172 1153 
Q 1172 725 1289 603 
Q 1406 481 1766 481 
L 2356 481 
L 2356 0 
L 1766 0 
Q 1100 0 847 248 
Q 594 497 594 1153 
L 594 3053 
L 172 3053 
L 172 3500 
L 594 3500 
L 594 4494 
L 1172 4494 
z
" id="DejaVuSans-74" transform="scale(0.015625)"/>
       <path d="M 3425 4513 
L 3425 3897 
Q 3066 4069 2747 4153 
Q 2428 4238 2131 4238 
Q 1616 4238 1336 4038 
Q 1056 3838 1056 3469 
Q 1056 3159 1242 3001 
Q 1428 2844 1947 2747 
L 2328 2669 
Q 3034 2534 3370 2195 
Q 3706 1856 3706 1288 
Q 3706 609 3251 259 
Q 2797 -91 1919 -91 
Q 1588 -91 1214 -16 
Q 841 59 441 206 
L 441 856 
Q 825 641 1194 531 
Q 1563 422 1919 422 
Q 2459 422 2753 634 
Q 3047 847 3047 1241 
Q 3047 1584 2836 1778 
Q 2625 1972 2144 2069 
L 1759 2144 
Q 1053 2284 737 2584 
Q 422 2884 422 3419 
Q 422 4038 858 4394 
Q 1294 4750 2059 4750 
Q 2388 4750 2728 4690 
Q 3069 4631 3425 4513 
z
" id="DejaVuSans-53" transform="scale(0.015625)"/>
       <path d="M 3122 3366 
L 3122 2828 
Q 2878 2963 2633 3030 
Q 2388 3097 2138 3097 
Q 1578 3097 1268 2742 
Q 959 2388 959 1747 
Q 959 1106 1268 751 
Q 1578 397 2138 397 
Q 2388 397 2633 464 
Q 2878 531 3122 666 
L 3122 134 
Q 2881 22 2623 -34 
Q 2366 -91 2075 -91 
Q 1284 -91 818 406 
Q 353 903 353 1747 
Q 353 2603 823 3093 
Q 1294 3584 2113 3584 
Q 2378 3584 2631 3529 
Q 2884 3475 3122 3366 
z
" id="DejaVuSans-63" transform="scale(0.015625)"/>
      </defs>
      <use xlink:href="#DejaVuSans-4d"/>
      <use x="86.279297" xlink:href="#DejaVuSans-75"/>
      <use x="149.658203" xlink:href="#DejaVuSans-74"/>
      <use x="188.867188" xlink:href="#DejaVuSans-53"/>
      <use x="252.34375" xlink:href="#DejaVuSans-70"/>
      <use x="315.820312" xlink:href="#DejaVuSans-65"/>
      <use x="377.34375" xlink:href="#DejaVuSans-63"/>
     </g>
    </g>
   </g>
   <g id="patch_111">
    <path d="M 72.58125 362.16 
L 72.58125 36 
" style="fill:none;stroke:#000000;stroke-linecap:square;stroke-linejoin:miter;stroke-width:0.8;"/>
   </g>
   <g id="patch_112">
    <path d="M 518.98125 362.16 
L 518.98125 36 
" style="fill:none;stroke:#000000;stroke-linecap:square;stroke-linejoin:miter;stroke-width:0.8;"/>
   </g>
   <g id="patch_113">
    <path d="M 72.58125 362.16 
L 518.98125 362.16 
" style="fill:none;stroke:#000000;stroke-linecap:square;stroke-linejoin:miter;stroke-width:0.8;"/>
   </g>
   <g id="patch_114">
    <path d="M 72.58125 36 
L 518.98125 36 
" style="fill:none;stroke:#000000;stroke-linecap:square;stroke-linejoin:miter;stroke-width:0.8;"/>
   </g>
   <g id="legend_1">
    <g id="patch_115">
     <path d="M 534.90925 234.815625 
L 590.356125 234.815625 
Q 592.356125 234.815625 592.356125 232.815625 
L 592.356125 43 
Q 592.356125 41 590.356125 41 
L 534.90925 41 
Q 532.90925 41 532.90925 43 
L 532.90925 232.815625 
Q 532.90925 234.815625 534.90925 234.815625 
z
" style="fill:#ffffff;opacity:0.8;stroke:#cccccc;stroke-linejoin:miter;"/>
    </g>
    <g id="text_18">
     <!-- Mut -->
     <g transform="translate(553.189719 52.598438)scale(0.1 -0.1)">
      <use xlink:href="#DejaVuSans-4d"/>
      <use x="86.279297" xlink:href="#DejaVuSans-75"/>
      <use x="149.658203" xlink:href="#DejaVuSans-74"/>
     </g>
    </g>
    <g id="patch_116">
     <path d="M 536.90925 67.276563 
L 556.90925 67.276563 
L 556.90925 60.276563 
L 536.90925 60.276563 
z
" style="fill:#f8766d;stroke:#808080;stroke-linejoin:miter;"/>
    </g>
    <g id="text_19">
     <!-- A&gt;C -->
     <g transform="translate(564.90925 67.276563)scale(0.1 -0.1)">
      <defs>
       <path d="M 2188 4044 
L 1331 1722 
L 3047 1722 
L 2188 4044 
z
M 1831 4666 
L 2547 4666 
L 4325 0 
L 3669 0 
L 3244 1197 
L 1141 1197 
L 716 0 
L 50 0 
L 1831 4666 
z
" id="DejaVuSans-41" transform="scale(0.015625)"/>
       <path d="M 678 3150 
L 678 3719 
L 4684 2266 
L 4684 1747 
L 678 294 
L 678 863 
L 3897 2003 
L 678 3150 
z
" id="DejaVuSans-3e" transform="scale(0.015625)"/>
       <path d="M 4122 4306 
L 4122 3641 
Q 3803 3938 3442 4084 
Q 3081 4231 2675 4231 
Q 1875 4231 1450 3742 
Q 1025 3253 1025 2328 
Q 1025 1406 1450 917 
Q 1875 428 2675 428 
Q 3081 428 3442 575 
Q 3803 722 4122 1019 
L 4122 359 
Q 3791 134 3420 21 
Q 3050 -91 2638 -91 
Q 1578 -91 968 557 
Q 359 1206 359 2328 
Q 359 3453 968 4101 
Q 1578 4750 2638 4750 
Q 3056 4750 3426 4639 
Q 3797 4528 4122 4306 
z
" id="DejaVuSans-43" transform="scale(0.015625)"/>
      </defs>
      <use xlink:href="#DejaVuSans-41"/>
      <use x="68.408203" xlink:href="#DejaVuSans-3e"/>
      <use x="152.197266" xlink:href="#DejaVuSans-43"/>
     </g>
    </g>
    <g id="patch_117">
     <path d="M 536.90925 81.954688 
L 556.90925 81.954688 
L 556.90925 74.954688 
L 536.90925 74.954688 
z
" style="fill:#de8c00;stroke:#808080;stroke-linejoin:miter;"/>
    </g>
    <g id="text_20">
     <!-- A&gt;G -->
     <g transform="translate(564.90925 81.954688)scale(0.1 -0.1)">
      <defs>
       <path d="M 3809 666 
L 3809 1919 
L 2778 1919 
L 2778 2438 
L 4434 2438 
L 4434 434 
Q 4069 175 3628 42 
Q 3188 -91 2688 -91 
Q 1594 -91 976 548 
Q 359 1188 359 2328 
Q 359 3472 976 4111 
Q 1594 4750 2688 4750 
Q 3144 4750 3555 4637 
Q 3966 4525 4313 4306 
L 4313 3634 
Q 3963 3931 3569 4081 
Q 3175 4231 2741 4231 
Q 1884 4231 1454 3753 
Q 1025 3275 1025 2328 
Q 1025 1384 1454 906 
Q 1884 428 2741 428 
Q 3075 428 3337 486 
Q 3600 544 3809 666 
z
" id="DejaVuSans-47" transform="scale(0.015625)"/>
      </defs>
      <use xlink:href="#DejaVuSans-41"/>
      <use x="68.408203" xlink:href="#DejaVuSans-3e"/>
      <use x="152.197266" xlink:href="#DejaVuSans-47"/>
     </g>
    </g>
    <g id="patch_118">
     <path d="M 536.90925 96.632813 
L 556.90925 96.632813 
L 556.90925 89.632813 
L 536.90925 89.632813 
z
" style="fill:#b79f00;stroke:#808080;stroke-linejoin:miter;"/>
    </g>
    <g id="text_21">
     <!-- A&gt;U -->
     <g transform="translate(564.90925 96.632813)scale(0.1 -0.1)">
      <defs>
       <path d="M 556 4666 
L 1191 4666 
L 1191 1831 
Q 1191 1081 1462 751 
Q 1734 422 2344 422 
Q 2950 422 3222 751 
Q 3494 1081 3494 1831 
L 3494 4666 
L 4128 4666 
L 4128 1753 
Q 4128 841 3676 375 
Q 3225 -91 2344 -91 
Q 1459 -91 1007 375 
Q 556 841 556 1753 
L 556 4666 
z
" id="DejaVuSans-55" transform="scale(0.015625)"/>
      </defs>
      <use xlink:href="#DejaVuSans-41"/>
      <use x="68.408203" xlink:href="#DejaVuSans-3e"/>
      <use x="152.197266" xlink:href="#DejaVuSans-55"/>
     </g>
    </g>
    <g id="patch_119">
     <path d="M 536.90925 111.310938 
L 556.90925 111.310938 
L 556.90925 104.310938 
L 536.90925 104.310938 
z
" style="fill:#7cae00;stroke:#808080;stroke-linejoin:miter;"/>
    </g>
    <g id="text_22">
     <!-- C&gt;A -->
     <g transform="translate(564.90925 111.310938)scale(0.1 -0.1)">
      <use xlink:href="#DejaVuSans-43"/>
      <use x="69.824219" xlink:href="#DejaVuSans-3e"/>
      <use x="153.613281" xlink:href="#DejaVuSans-41"/>
     </g>
    </g>
    <g id="patch_120">
     <path d="M 536.90925 125.989063 
L 556.90925 125.989063 
L 556.90925 118.989063 
L 536.90925 118.989063 
z
" style="fill:#00ba38;stroke:#808080;stroke-linejoin:miter;"/>
    </g>
    <g id="text_23">
     <!-- C&gt;G -->
     <g transform="translate(564.90925 125.989063)scale(0.1 -0.1)">
      <use xlink:href="#DejaVuSans-43"/>
      <use x="69.824219" xlink:href="#DejaVuSans-3e"/>
      <use x="153.613281" xlink:href="#DejaVuSans-47"/>
     </g>
    </g>
    <g id="patch_121">
     <path d="M 536.90925 140.667188 
L 556.90925 140.667188 
L 556.90925 133.667188 
L 536.90925 133.667188 
z
" style="fill:#00c08b;stroke:#808080;stroke-linejoin:miter;"/>
    </g>
    <g id="text_24">
     <!-- C&gt;U -->
     <g transform="translate(564.90925 140.667188)scale(0.1 -0.1)">
      <use xlink:href="#DejaVuSans-43"/>
      <use x="69.824219" xlink:href="#DejaVuSans-3e"/>
      <use x="153.613281" xlink:href="#DejaVuSans-55"/>
     </g>
    </g>
    <g id="patch_122">
     <path d="M 536.90925 155.345313 
L 556.90925 155.345313 
L 556.90925 148.345313 
L 536.90925 148.345313 
z
" style="fill:#00bfc4;stroke:#808080;stroke-linejoin:miter;"/>
    </g>
    <g id="text_25">
     <!-- G&gt;A -->
     <g transform="translate(564.90925 155.345313)scale(0.1 -0.1)">
      <use xlink:href="#DejaVuSans-47"/>
      <use x="77.490234" xlink:href="#DejaVuSans-3e"/>
      <use x="161.279297" xlink:href="#DejaVuSans-41"/>
     </g>
    </g>
    <g id="patch_123">
     <path d="M 536.90925 170.023438 
L 556.90925 170.023438 
L 556.90925 163.023438 
L 536.90925 163.023438 
z
" style="fill:#00b4f0;stroke:#808080;stroke-linejoin:miter;"/>
    </g>
    <g id="text_26">
     <!-- G&gt;C -->
     <g transform="translate(564.90925 170.023438)scale(0.1 -0.1)">
      <use xlink:href="#DejaVuSans-47"/>
      <use x="77.490234" xlink:href="#DejaVuSans-3e"/>
      <use x="161.279297" xlink:href="#DejaVuSans-43"/>
     </g>
    </g>
    <g id="patch_124">
     <path d="M 536.90925 184.701563 
L 556.90925 184.701563 
L 556.90925 177.701563 
L 536.90925 177.701563 
z
" style="fill:#619cff;stroke:#808080;stroke-linejoin:miter;"/>
    </g>
    <g id="text_27">
     <!-- G&gt;U -->
     <g transform="translate(564.90925 184.701563)scale(0.1 -0.1)">
      <use xlink:href="#DejaVuSans-47"/>
      <use x="77.490234" xlink:href="#DejaVuSans-3e"/>
      <use x="161.279297" xlink:href="#DejaVuSans-55"/>
     </g>
    </g>
    <g id="patch_125">
     <path d="M 536.90925 199.379688 
L 556.90925 199.379688 
L 556.90925 192.379688 
L 536.90925 192.379688 
z
" style="fill:#c77cff;stroke:#808080;stroke-linejoin:miter;"/>
    </g>
    <g id="text_28">
     <!-- U&gt;A -->
     <g transform="translate(564.90925 199.379688)scale(0.1 -0.1)">
      <use xlink:href="#DejaVuSans-55"/>
      <use x="73.193359" xlink:href="#DejaVuSans-3e"/>
      <use x="156.982422" xlink:href="#DejaVuSans-41"/>
     </g>
    </g>
    <g id="patch_126">
     <path d="M 536.90925 214.057813 
L 556.90925 214.057813 
L 556.90925 207.057813 
L 536.90925 207.057813 
z
" style="fill:#f564e3;stroke:#808080;stroke-linejoin:miter;"/>
    </g>
    <g id="text_29">
     <!-- U&gt;C -->
     <g transform="translate(564.90925 214.057813)scale(0.1 -0.1)">
      <use xlink:href="#DejaVuSans-55"/>
      <use x="73.193359" xlink:href="#DejaVuSans-3e"/>
      <use x="156.982422" xlink:href="#DejaVuSans-43"/>
     </g>
    </g>
    <g id="patch_127">
     <path d="M 536.90925 228.735938 
L 556.90925 228.735938 
L 556.90925 221.735938 
L 536.90925 221.735938 
z
" style="fill:#ff64b0;stroke:#808080;stroke-linejoin:miter;"/>
    </g>
    <g id="text_30">
     <!-- U&gt;G -->
     <g transform="translate(564.90925 228.735938)scale(0.1 -0.1)">
      <use xlink:href="#DejaVuSans-55"/>
      <use x="73.193359" xlink:href="#DejaVuSans-3e"/>
      <use x="156.982422" xlink:href="#DejaVuSans-47"/>
     </g>
    </g>
   </g>
  </g>
 </g>
 <defs>
  <clipPath id="p8300224a37">
   <rect height="326.16" width="446.4" x="72.58125" y="36"/>
  </clipPath>
 </defs>
</svg>
